<svg width="642" height="323" viewBox="0 0 642 323" fill="none" xmlns="http://www.w3.org/2000/svg">
<path d="M640 321C640 279.108 631.749 237.627 615.718 198.924C599.686 160.221 576.189 125.055 546.567 95.4329C516.945 65.811 481.779 42.3137 443.076 26.2824C404.373 10.2512 362.892 2 321 2C279.108 2 237.627 10.2512 198.924 26.2824C160.221 42.3137 125.055 65.8111 95.4329 95.433C65.811 125.055 42.3137 160.221 26.2824 198.924C10.2512 237.627 2 279.108 2 321L321 321H640Z" fill="#D9D9D9"/>
<path d="M62.9236 133.496C23.3267 187.997 2.00001 253.634 2 321L321 321L62.9236 133.496Z" fill="#0B934B"/>
<path d="M222.424 17.613C158.355 38.4303 102.52 78.9961 62.9236 133.496L321 321L222.424 17.613Z" fill="#1491D3"/>
<path d="M419.576 17.613C355.507 -3.20431 286.493 -3.20428 222.424 17.613L321 321L419.576 17.613Z" fill="#FDB513"/>
<path d="M579.076 133.497C539.48 78.9962 483.646 38.4303 419.576 17.613L321 321L579.076 133.497Z" fill="#F37C1E"/>
<path d="M640 321C640 253.634 618.673 187.997 579.076 133.497L321 321H640Z" fill="#D52226"/>
<path d="M640 321V323C641.105 323 642 322.105 642 321H640ZM321 2L321 4L321 2ZM2 321L0 321C4.63732e-08 321.53 0.210714 322.039 0.585787 322.414C0.960859 322.789 1.46957 323 2 323L2 321ZM62.9236 133.496L61.3056 132.321L62.9236 133.496ZM222.424 17.613L221.806 15.7109L221.806 15.7109L222.424 17.613ZM419.576 17.613L420.195 15.7109L419.576 17.613ZM642 321C642 278.846 633.697 237.104 617.565 198.159L613.87 199.689C629.801 238.15 638 279.371 638 321H642ZM617.565 198.159C601.434 159.213 577.789 123.826 547.981 94.0187L545.153 96.8471C574.589 126.283 597.939 161.229 613.87 199.689L617.565 198.159ZM547.981 94.0187C518.174 64.2111 482.787 40.5664 443.841 24.4347L442.311 28.1302C480.771 44.0609 515.717 67.411 545.153 96.8471L547.981 94.0187ZM443.841 24.4347C404.896 8.30291 363.154 -1.84262e-06 321 0L321 4C362.629 4 403.85 12.1994 442.311 28.1302L443.841 24.4347ZM321 0C278.846 1.84262e-06 237.104 8.30291 198.159 24.4347L199.689 28.1302C238.15 12.1995 279.371 4 321 4L321 0ZM198.159 24.4347C159.213 40.5664 123.826 64.2111 94.0187 94.0187L96.8471 96.8472C126.283 67.411 161.229 44.0609 199.689 28.1302L198.159 24.4347ZM94.0187 94.0187C64.2111 123.826 40.5664 159.213 24.4347 198.159L28.1302 199.689C44.0609 161.229 67.411 126.283 96.8471 96.8472L94.0187 94.0187ZM24.4347 198.159C8.3029 237.104 -3.68525e-06 278.846 0 321L4 321C4 279.371 12.1994 238.15 28.1302 199.689L24.4347 198.159ZM2 323L321 323L321 319L2 319L2 323ZM321 323H640V319H321V323ZM61.3056 132.321C21.4605 187.163 5.92626e-06 253.211 0 321L4 321C4.00001 254.056 25.193 188.831 64.5416 134.672L61.3056 132.321ZM322.176 319.382L64.0992 131.878L61.748 135.115L319.824 322.618L322.176 319.382ZM221.806 15.7109C157.335 36.6587 101.151 77.4788 61.3056 132.321L64.5416 134.672C103.89 80.5134 159.374 40.2019 223.042 19.5151L221.806 15.7109ZM322.902 320.382L224.326 16.9949L220.521 18.231L319.098 321.618L322.902 320.382ZM420.195 15.7109C355.724 -5.23694 286.276 -5.23691 221.806 15.7109L223.042 19.5151C286.709 -1.17165 355.291 -1.17168 418.958 19.5151L420.195 15.7109ZM322.902 321.618L421.479 18.231L417.674 16.995L319.098 320.382L322.902 321.618ZM580.695 132.321C540.849 77.4789 484.665 36.6587 420.195 15.7109L418.958 19.5151C482.626 40.2019 538.11 80.5135 577.458 134.672L580.695 132.321ZM322.176 322.618L580.252 135.115L577.901 131.879L319.824 319.382L322.176 322.618ZM642 321C642 253.211 620.54 187.163 580.695 132.321L577.458 134.672C616.807 188.831 638 254.056 638 321H642Z" fill="black"/>
</svg>
