<svg width="73" height="273" viewBox="0 0 73 273" fill="none" xmlns="http://www.w3.org/2000/svg">
<mask id="path-1-outside-1_1_21" maskUnits="userSpaceOnUse" x="0" y="0" width="73" height="273" fill="black">
<rect fill="white" width="73" height="273"/>
<path d="M37.2371 4L57.3609 250H17.1132L37.2371 4Z"/>
<path d="M69 236.5C69 254.449 54.4493 269 36.5 269C18.5507 269 4 254.449 4 236.5C4 218.551 18.5507 204 36.5 204C54.4493 204 69 218.551 69 236.5Z"/>
</mask>
<path d="M37.2371 4L57.3609 250H17.1132L37.2371 4Z" fill="#D62828"/>
<path d="M69 236.5C69 254.449 54.4493 269 36.5 269C18.5507 269 4 254.449 4 236.5C4 218.551 18.5507 204 36.5 204C54.4493 204 69 218.551 69 236.5Z" fill="#8D99AE"/>
<path d="M37.2371 4L41.2237 3.67387C41.0539 1.59812 39.3197 0 37.2371 0C35.1544 0 33.4202 1.59812 33.2504 3.67387L37.2371 4ZM57.3609 250V254C58.4785 254 59.5451 253.532 60.3024 252.711C61.0597 251.889 61.4387 250.788 61.3476 249.674L57.3609 250ZM17.1132 250L13.1265 249.674C13.0354 250.788 13.4144 251.889 14.1717 252.711C14.929 253.532 15.9956 254 17.1132 254V250ZM33.2504 4.32613L53.3743 250.326L61.3476 249.674L41.2237 3.67387L33.2504 4.32613ZM57.3609 246H17.1132V254H57.3609V246ZM21.0999 250.326L41.2237 4.32613L33.2504 3.67387L13.1265 249.674L21.0999 250.326ZM65 236.5C65 252.24 52.2401 265 36.5 265V273C56.6584 273 73 256.658 73 236.5H65ZM36.5 265C20.7599 265 8 252.24 8 236.5H0C0 256.658 16.3416 273 36.5 273V265ZM8 236.5C8 220.76 20.7599 208 36.5 208V200C16.3416 200 0 216.342 0 236.5H8ZM36.5 208C52.2401 208 65 220.76 65 236.5H73C73 216.342 56.6584 200 36.5 200V208Z" fill="black" mask="url(#path-1-outside-1_1_21)"/>
</svg>
